<mxfile host="app.diagrams.net" agent="Mozilla/5.0 (Macintosh; Intel Mac OS X 10_15_7) AppleWebKit/537.36 (KHTML, like Gecko) Chrome/137.0.0.0 Safari/537.36" version="27.1.5">
  <diagram name="Page-1" id="QBrpprC_hoBA46FXxgZt">
    <mxGraphModel dx="888" dy="556" grid="1" gridSize="10" guides="1" tooltips="1" connect="1" arrows="1" fold="1" page="1" pageScale="1" pageWidth="850" pageHeight="1100" math="0" shadow="0">
      <root>
        <mxCell id="0" />
        <mxCell id="1" parent="0" />
        <mxCell id="FEZYvl3iprQcO-uTyvuW-1" value="" style="rounded=0;whiteSpace=wrap;html=1;" vertex="1" parent="1">
          <mxGeometry x="40" y="30" width="270" height="520" as="geometry" />
        </mxCell>
        <mxCell id="FEZYvl3iprQcO-uTyvuW-2" value="&lt;div style=&quot;color: rgb(246, 246, 244); background-color: rgb(40, 42, 54); font-family: Menlo, Monaco, &amp;quot;Courier New&amp;quot;, monospace; line-height: 27px; white-space: pre;&quot;&gt;&lt;font style=&quot;font-size: 10px;&quot;&gt;graphmodels.&lt;span style=&quot;color: rgb(98, 232, 132);&quot;&gt;NewConditionalAccessRoot&lt;/span&gt;&lt;/font&gt;&lt;/div&gt;" style="text;whiteSpace=wrap;html=1;" vertex="1" parent="1">
          <mxGeometry x="67.5" y="40" width="230" height="40" as="geometry" />
        </mxCell>
        <mxCell id="FEZYvl3iprQcO-uTyvuW-3" value="&lt;div style=&quot;color: rgb(246, 246, 244); background-color: rgb(40, 42, 54); font-family: Menlo, Monaco, &amp;quot;Courier New&amp;quot;, monospace; line-height: 27px; white-space: pre;&quot;&gt;&lt;span style=&quot;color: rgb(98, 232, 132);&quot;&gt;&lt;font style=&quot;font-size: 10px;&quot;&gt;AuthenticationContextClassReferences&lt;/font&gt;&lt;/span&gt;&lt;/div&gt;" style="rounded=0;whiteSpace=wrap;html=1;" vertex="1" parent="1">
          <mxGeometry x="52.5" y="190" width="245" height="50" as="geometry" />
        </mxCell>
        <mxCell id="FEZYvl3iprQcO-uTyvuW-4" value="Id&lt;div&gt;OdataType&lt;/div&gt;" style="rounded=0;whiteSpace=wrap;html=1;" vertex="1" parent="1">
          <mxGeometry x="115" y="110" width="120" height="60" as="geometry" />
        </mxCell>
        <mxCell id="FEZYvl3iprQcO-uTyvuW-5" value="&lt;div style=&quot;color: rgb(246, 246, 244); background-color: rgb(40, 42, 54); font-family: Menlo, Monaco, &amp;quot;Courier New&amp;quot;, monospace; line-height: 27px; white-space: pre;&quot;&gt;&lt;div style=&quot;line-height: 27px;&quot;&gt;&lt;span style=&quot;color: rgb(98, 232, 132);&quot;&gt;&lt;font style=&quot;font-size: 10px;&quot;&gt;AuthenticationStrength&lt;/font&gt;&lt;/span&gt;&lt;/div&gt;&lt;/div&gt;" style="rounded=0;whiteSpace=wrap;html=1;" vertex="1" parent="1">
          <mxGeometry x="52.5" y="380" width="245" height="50" as="geometry" />
        </mxCell>
        <UserObject label="https://learn.microsoft.com/en-us/graph/api/resources/conditionalaccessroot?view=graph-rest-beta" link="https://learn.microsoft.com/en-us/graph/api/resources/conditionalaccessroot?view=graph-rest-beta" id="FEZYvl3iprQcO-uTyvuW-6">
          <mxCell style="text;whiteSpace=wrap;" vertex="1" parent="1">
            <mxGeometry x="40" y="560" width="180" height="60" as="geometry" />
          </mxCell>
        </UserObject>
        <mxCell id="FEZYvl3iprQcO-uTyvuW-7" value="&lt;div style=&quot;color: rgb(246, 246, 244); background-color: rgb(40, 42, 54); font-family: Menlo, Monaco, &amp;quot;Courier New&amp;quot;, monospace; line-height: 27px; white-space: pre;&quot;&gt;&lt;div style=&quot;line-height: 27px;&quot;&gt;&lt;span style=&quot;color: rgb(98, 232, 132);&quot;&gt;&lt;font style=&quot;font-size: 10px;&quot;&gt;Templates&lt;/font&gt;&lt;/span&gt;&lt;/div&gt;&lt;/div&gt;" style="rounded=0;whiteSpace=wrap;html=1;" vertex="1" parent="1">
          <mxGeometry x="52.5" y="490" width="245" height="50" as="geometry" />
        </mxCell>
        <mxCell id="FEZYvl3iprQcO-uTyvuW-8" value="&lt;div style=&quot;color: rgb(246, 246, 244); background-color: rgb(40, 42, 54); font-family: Menlo, Monaco, &amp;quot;Courier New&amp;quot;, monospace; font-weight: normal; line-height: 27px; white-space: pre;&quot;&gt;&lt;div style=&quot;&quot;&gt;&lt;font style=&quot;font-size: 10px;&quot;&gt;&lt;span style=&quot;color: rgb(246, 246, 244);&quot;&gt;[]&lt;/span&gt;&lt;span style=&quot;color: rgb(151, 225, 241); font-style: italic;&quot;&gt;AuthenticationContextClassReferenceable&lt;/span&gt;&lt;/font&gt;&lt;/div&gt;&lt;/div&gt;" style="text;whiteSpace=wrap;html=1;" vertex="1" parent="1">
          <mxGeometry x="350" y="195" width="260" height="40" as="geometry" />
        </mxCell>
        <mxCell id="FEZYvl3iprQcO-uTyvuW-9" style="edgeStyle=none;rounded=0;orthogonalLoop=1;jettySize=auto;html=1;exitX=1;exitY=0.5;exitDx=0;exitDy=0;entryX=0;entryY=0.5;entryDx=0;entryDy=0;" edge="1" parent="1" source="FEZYvl3iprQcO-uTyvuW-3" target="FEZYvl3iprQcO-uTyvuW-8">
          <mxGeometry relative="1" as="geometry" />
        </mxCell>
        <mxCell id="FEZYvl3iprQcO-uTyvuW-10" value="" style="rounded=0;whiteSpace=wrap;html=1;" vertex="1" parent="1">
          <mxGeometry x="640" y="120" width="150" height="230" as="geometry" />
        </mxCell>
        <mxCell id="FEZYvl3iprQcO-uTyvuW-11" style="edgeStyle=none;rounded=0;orthogonalLoop=1;jettySize=auto;html=1;exitX=1;exitY=0.5;exitDx=0;exitDy=0;entryX=0.013;entryY=0.397;entryDx=0;entryDy=0;entryPerimeter=0;" edge="1" parent="1" source="FEZYvl3iprQcO-uTyvuW-8" target="FEZYvl3iprQcO-uTyvuW-10">
          <mxGeometry relative="1" as="geometry" />
        </mxCell>
        <mxCell id="FEZYvl3iprQcO-uTyvuW-12" value="Id&lt;div&gt;OdataType&lt;/div&gt;&lt;div&gt;AdditionalData&lt;/div&gt;" style="rounded=0;whiteSpace=wrap;html=1;" vertex="1" parent="1">
          <mxGeometry x="655" y="140" width="120" height="60" as="geometry" />
        </mxCell>
        <mxCell id="FEZYvl3iprQcO-uTyvuW-13" value="&lt;div style=&quot;color: rgb(246, 246, 244); background-color: rgb(40, 42, 54); font-family: Menlo, Monaco, &amp;quot;Courier New&amp;quot;, monospace; line-height: 27px; white-space: pre;&quot;&gt;&lt;span style=&quot;color: rgb(98, 232, 132);&quot;&gt;&lt;font style=&quot;font-size: 10px;&quot;&gt;Description&lt;/font&gt;&lt;/span&gt;&lt;/div&gt;&lt;div style=&quot;color: rgb(246, 246, 244); background-color: rgb(40, 42, 54); font-family: Menlo, Monaco, &amp;quot;Courier New&amp;quot;, monospace; line-height: 27px; white-space: pre;&quot;&gt;&lt;span style=&quot;color: rgb(98, 232, 132);&quot;&gt;&lt;font style=&quot;font-size: 10px;&quot;&gt;DisplayName&lt;/font&gt;&lt;/span&gt;&lt;/div&gt;&lt;div style=&quot;color: rgb(246, 246, 244); background-color: rgb(40, 42, 54); font-family: Menlo, Monaco, &amp;quot;Courier New&amp;quot;, monospace; line-height: 27px; white-space: pre;&quot;&gt;&lt;span style=&quot;color: rgb(98, 232, 132);&quot;&gt;&lt;font style=&quot;font-size: 10px;&quot;&gt;IsAvailable&lt;/font&gt;&lt;/span&gt;&lt;/div&gt;&lt;div style=&quot;color: rgb(246, 246, 244); background-color: rgb(40, 42, 54); font-family: Menlo, Monaco, &amp;quot;Courier New&amp;quot;, monospace; line-height: 27px; white-space: pre;&quot;&gt;&lt;span style=&quot;color: rgb(98, 232, 132);&quot;&gt;&lt;font style=&quot;font-size: 10px;&quot;&gt;&lt;br&gt;&lt;/font&gt;&lt;/span&gt;&lt;/div&gt;" style="rounded=0;whiteSpace=wrap;html=1;" vertex="1" parent="1">
          <mxGeometry x="670" y="215" width="97.5" height="120" as="geometry" />
        </mxCell>
        <mxCell id="FEZYvl3iprQcO-uTyvuW-14" value="&lt;div style=&quot;color: rgb(246, 246, 244); background-color: rgb(40, 42, 54); font-family: Menlo, Monaco, &amp;quot;Courier New&amp;quot;, monospace; font-weight: normal; line-height: 27px; white-space: pre;&quot;&gt;&lt;div style=&quot;&quot;&gt;&lt;div style=&quot;line-height: 27px;&quot;&gt;&lt;span style=&quot;color: rgb(151, 225, 241); font-style: italic;&quot;&gt;&lt;font style=&quot;font-size: 10px;&quot;&gt;AuthenticationStrengthRootable&lt;/font&gt;&lt;/span&gt;&lt;/div&gt;&lt;/div&gt;&lt;/div&gt;" style="text;whiteSpace=wrap;html=1;" vertex="1" parent="1">
          <mxGeometry x="342" y="385" width="260" height="40" as="geometry" />
        </mxCell>
        <mxCell id="FEZYvl3iprQcO-uTyvuW-15" style="edgeStyle=none;rounded=0;orthogonalLoop=1;jettySize=auto;html=1;exitX=1;exitY=0.5;exitDx=0;exitDy=0;entryX=0;entryY=0.5;entryDx=0;entryDy=0;" edge="1" parent="1" target="FEZYvl3iprQcO-uTyvuW-14" source="FEZYvl3iprQcO-uTyvuW-5">
          <mxGeometry relative="1" as="geometry">
            <mxPoint x="290" y="405" as="sourcePoint" />
          </mxGeometry>
        </mxCell>
        <mxCell id="FEZYvl3iprQcO-uTyvuW-16" value="" style="rounded=0;whiteSpace=wrap;html=1;" vertex="1" parent="1">
          <mxGeometry x="640" y="385" width="150" height="305" as="geometry" />
        </mxCell>
        <mxCell id="FEZYvl3iprQcO-uTyvuW-18" value="&lt;div style=&quot;color: rgb(246, 246, 244); background-color: rgb(40, 42, 54); font-family: Menlo, Monaco, &amp;quot;Courier New&amp;quot;, monospace; line-height: 27px; white-space: pre;&quot;&gt;&lt;div style=&quot;line-height: 27px;&quot;&gt;&lt;div style=&quot;line-height: 27px;&quot;&gt;&lt;span style=&quot;color: rgb(98, 232, 132);&quot;&gt;&lt;font style=&quot;font-size: 10px;&quot;&gt;AuthenticationCombinations&lt;/font&gt;&lt;/span&gt;&lt;/div&gt;&lt;/div&gt;&lt;/div&gt;" style="rounded=0;whiteSpace=wrap;html=1;" vertex="1" parent="1">
          <mxGeometry x="592.5" y="410" width="245" height="50" as="geometry" />
        </mxCell>
        <mxCell id="FEZYvl3iprQcO-uTyvuW-19" value="&lt;div style=&quot;color: rgb(246, 246, 244); background-color: rgb(40, 42, 54); font-family: Menlo, Monaco, &amp;quot;Courier New&amp;quot;, monospace; font-weight: normal; line-height: 27px; white-space: pre;&quot;&gt;&lt;div style=&quot;&quot;&gt;&lt;div style=&quot;line-height: 27px;&quot;&gt;&lt;font style=&quot;font-size: 10px;&quot;&gt;[]&lt;span style=&quot;color: rgb(151, 225, 241); font-style: italic;&quot;&gt;AuthenticationMethodModes&lt;/span&gt;&lt;/font&gt;&lt;/div&gt;&lt;/div&gt;&lt;/div&gt;" style="text;whiteSpace=wrap;html=1;" vertex="1" parent="1">
          <mxGeometry x="900" y="415" width="170" height="40" as="geometry" />
        </mxCell>
        <mxCell id="FEZYvl3iprQcO-uTyvuW-20" value="&lt;div style=&quot;color: rgb(246, 246, 244); background-color: rgb(40, 42, 54); font-family: Menlo, Monaco, &amp;quot;Courier New&amp;quot;, monospace; line-height: 27px; white-space: pre;&quot;&gt;&lt;div style=&quot;line-height: 27px;&quot;&gt;&lt;div style=&quot;line-height: 27px;&quot;&gt;&lt;div style=&quot;line-height: 27px;&quot;&gt;&lt;span style=&quot;color: rgb(98, 232, 132);&quot;&gt;&lt;font style=&quot;font-size: 10px;&quot;&gt;AuthenticationMethodModes&lt;/font&gt;&lt;/span&gt;&lt;/div&gt;&lt;/div&gt;&lt;/div&gt;&lt;/div&gt;" style="rounded=0;whiteSpace=wrap;html=1;" vertex="1" parent="1">
          <mxGeometry x="596.25" y="490" width="245" height="50" as="geometry" />
        </mxCell>
        <mxCell id="FEZYvl3iprQcO-uTyvuW-22" value="&lt;div style=&quot;color: rgb(246, 246, 244); background-color: rgb(40, 42, 54); font-family: Menlo, Monaco, &amp;quot;Courier New&amp;quot;, monospace; font-weight: normal; line-height: 27px; white-space: pre;&quot;&gt;&lt;div style=&quot;&quot;&gt;&lt;font style=&quot;font-size: 10px;&quot;&gt;&lt;span style=&quot;color: rgb(246, 246, 244);&quot;&gt;[]&lt;/span&gt;&lt;span style=&quot;color: rgb(151, 225, 241); font-style: italic;&quot;&gt;AuthenticationMethodModeDetailable&lt;/span&gt;&lt;/font&gt;&lt;/div&gt;&lt;/div&gt;" style="text;whiteSpace=wrap;html=1;" vertex="1" parent="1">
          <mxGeometry x="900" y="490" width="230" height="30" as="geometry" />
        </mxCell>
        <mxCell id="FEZYvl3iprQcO-uTyvuW-23" value="&lt;div style=&quot;color: rgb(246, 246, 244); background-color: rgb(40, 42, 54); font-family: Menlo, Monaco, &amp;quot;Courier New&amp;quot;, monospace; line-height: 27px; white-space: pre;&quot;&gt;&lt;div style=&quot;line-height: 27px;&quot;&gt;&lt;div style=&quot;line-height: 27px;&quot;&gt;&lt;div style=&quot;line-height: 27px;&quot;&gt;&lt;div style=&quot;line-height: 27px;&quot;&gt;&lt;span style=&quot;color: rgb(98, 232, 132);&quot;&gt;&lt;font style=&quot;font-size: 10px;&quot;&gt;Combinations&lt;/font&gt;&lt;/span&gt;&lt;/div&gt;&lt;/div&gt;&lt;/div&gt;&lt;/div&gt;&lt;/div&gt;" style="rounded=0;whiteSpace=wrap;html=1;" vertex="1" parent="1">
          <mxGeometry x="596.25" y="560" width="245" height="50" as="geometry" />
        </mxCell>
        <mxCell id="FEZYvl3iprQcO-uTyvuW-24" value="&lt;div style=&quot;color: rgb(246, 246, 244); background-color: rgb(40, 42, 54); font-family: Menlo, Monaco, &amp;quot;Courier New&amp;quot;, monospace; line-height: 27px; white-space: pre;&quot;&gt;&lt;div style=&quot;line-height: 27px;&quot;&gt;&lt;div style=&quot;line-height: 27px;&quot;&gt;&lt;div style=&quot;line-height: 27px;&quot;&gt;&lt;div style=&quot;line-height: 27px;&quot;&gt;&lt;div style=&quot;line-height: 27px;&quot;&gt;&lt;span style=&quot;color: rgb(98, 232, 132);&quot;&gt;&lt;font style=&quot;font-size: 10px;&quot;&gt;Policies&lt;/font&gt;&lt;/span&gt;&lt;/div&gt;&lt;/div&gt;&lt;/div&gt;&lt;/div&gt;&lt;/div&gt;&lt;/div&gt;" style="rounded=0;whiteSpace=wrap;html=1;" vertex="1" parent="1">
          <mxGeometry x="596.25" y="630" width="245" height="50" as="geometry" />
        </mxCell>
      </root>
    </mxGraphModel>
  </diagram>
</mxfile>
